<svg width="253" height="71" viewBox="0 0 253 71" fill="none" xmlns="http://www.w3.org/2000/svg">
<path d="M14.5078 71H0.494141V0.980469H49.5176V14.9941H14.5078V29.0078H35.5039V43.0215H14.5078V71Z" fill="#06C3FF"/>
<path d="M104.742 71H56.7441V0.980469H104.742V14.9941H70.7578V29.0078H93.7559V43.0215H70.7578V56.9863H104.742V71ZM184.918 71H170.904V0.980469H184.918V71Z" fill="white"/>
<path d="M163.58 71H114.557V0.980469H128.57V56.9863H163.58V71Z" fill="#07C0FB"/>
<path d="M252.35 71H235.357L221.881 48.3926L208.355 71H191.461L212.945 35.9902L191.461 0.980469H208.355L221.881 23.5879L235.357 0.980469H252.35L230.865 35.9902L252.35 71Z" fill="#17BFF4"/>
</svg>
